# xmcd
# Copyright (C) 1995-1998 Ti Kan
#
# Track frame offsets:
#       150
#       20767
#       38625
#       58132
#
# Disc length: 1044 seconds
#
# Revision: 0
# Processed by: cddbd v1.4b42PL1 Copyright (c) Steve Scherf et al.
# Submitted via: CD-Transfer v1.0
#
DISCID=2f041204
DTITLE=Thunderwork - The Winner
DYEAR=2000
DGENRE=
TTITLE0=The Winner
TTITLE1=Let Me Go
TTITLE2=Back In Town
TTITLE3=It's All The Same To Me
EXTD=
EXTT0=
EXTT1=
EXTT2=
EXTT3=
PLAYORDER=
